<svg width="49" height="49" viewBox="0 0 49 49" fill="none" xmlns="http://www.w3.org/2000/svg">
<path d="M24.5 2.76227L25.6425 5.97886C26.1371 7.37132 27.9844 7.64977 28.8675 6.46495L30.9073 3.72802L31.0509 7.13845C31.1131 8.61483 32.7963 9.42544 33.9894 8.55353L36.7453 6.53945L35.8773 9.8407C35.5015 11.2698 36.871 12.5405 38.2681 12.059L41.4952 10.9467L39.6927 13.8455C38.9124 15.1004 39.8465 16.7183 41.3234 16.67L44.7351 16.5583L42.1582 18.797C41.0427 19.7661 41.4584 21.5875 42.884 21.9766L46.1769 22.8755L43.0547 24.2552C41.7031 24.8525 41.5635 26.7155 42.811 27.5075L45.6927 29.3371L42.3026 29.7352C40.8349 29.9075 40.1524 31.6466 41.111 32.7712L43.3254 35.3689L39.9685 34.75C38.5153 34.4821 37.3505 35.9427 37.9351 37.2999L39.2854 40.4349L36.2601 38.854C34.9504 38.1697 33.4068 39.2221 33.5654 40.6913L33.9316 44.085L31.5067 41.6827C30.4569 40.6427 28.6717 41.1934 28.3902 42.644L27.7398 45.9949L26.1307 42.9846C25.4341 41.6814 23.5659 41.6814 22.8693 42.9846L21.2602 45.9949L20.6098 42.644C20.3283 41.1934 18.5431 40.6427 17.4933 41.6827L15.0684 44.085L15.4346 40.6913C15.5932 39.2221 14.0496 38.1697 12.7399 38.854L9.71459 40.4349L11.0649 37.2999C11.6495 35.9427 10.4847 34.4821 9.03146 34.75L5.67458 35.3689L7.88898 32.7712C8.8476 31.6466 8.16506 29.9075 6.69745 29.7352L3.30728 29.3371L6.189 27.5075C7.4365 26.7155 7.29688 24.8525 5.94527 24.2552L2.82305 22.8755L6.11603 21.9766C7.54156 21.5875 7.95728 19.7661 6.84176 18.797L4.26492 16.5583L7.67655 16.67C9.15345 16.7183 10.0876 15.1004 9.30726 13.8455L7.50476 10.9467L10.7319 12.059C12.1289 12.5405 13.4985 11.2698 13.1227 9.8407L12.2547 6.53945L15.0106 8.55353C16.2037 9.42543 17.8869 8.61484 17.9491 7.13845L18.0927 3.72802L20.1325 6.46495C21.0156 7.64977 22.8629 7.37132 23.3575 5.97886L24.5 2.76227Z" fill="url(#paint0_linear_119_1950)" stroke="url(#paint1_linear_119_1950)" stroke-width="1.84906"/>
<path d="M16.6411 24.9625L19.7602 30.031C20.062 30.5214 20.7338 30.6196 21.1633 30.2361L33.2826 19.4153" stroke="url(#paint2_linear_119_1950)" stroke-width="2.77359" stroke-linecap="round"/>
<circle cx="24.9621" cy="12.9435" r="2.77358" fill="#222222"/>
<defs>
<linearGradient id="paint0_linear_119_1950" x1="49" y1="49" x2="-8.42947" y2="31.6036" gradientUnits="userSpaceOnUse">
<stop stop-color="#8691A6"/>
<stop offset="1" stop-color="#8691A6" stop-opacity="0.1"/>
</linearGradient>
<linearGradient id="paint1_linear_119_1950" x1="10.6321" y1="6.00943" x2="35.5943" y2="44.8396" gradientUnits="userSpaceOnUse">
<stop stop-color="#8691A6" stop-opacity="0.7"/>
<stop offset="1" stop-color="white" stop-opacity="0.9"/>
<stop offset="1" stop-color="white"/>
</linearGradient>
<linearGradient id="paint2_linear_119_1950" x1="20.4526" y1="18.3992" x2="27.0538" y2="30.9863" gradientUnits="userSpaceOnUse">
<stop stop-color="#8691A6"/>
<stop offset="1" stop-color="white" stop-opacity="0.9"/>
<stop offset="1" stop-color="white"/>
</linearGradient>
</defs>
</svg>
